<svg width="263" height="22" viewBox="0 0 263 22" fill="none" xmlns="http://www.w3.org/2000/svg">
<path d="M0.61875 21V0.359999H15.0188C18.1974 0.359999 20.5868 0.807999 22.1868 1.704C23.7868 2.6 24.5868 3.98667 24.5868 5.864C24.5868 7.08 24.2561 8.02933 23.5948 8.712C22.9334 9.37333 21.9948 9.85333 20.7788 10.152C19.5841 10.4507 18.1548 10.6427 16.4908 10.728L16.6508 10.504C17.8668 10.5253 18.9974 10.5893 20.0428 10.696C21.1094 10.8027 22.0374 11.0267 22.8268 11.368C23.6374 11.688 24.2668 12.1573 24.7148 12.776C25.1841 13.3947 25.4188 14.2053 25.4188 15.208C25.4188 16.5093 25.0348 17.5867 24.2668 18.44C23.5201 19.272 22.4641 19.9013 21.0988 20.328C19.7334 20.7547 18.1334 20.9787 16.2987 21H0.61875ZM5.99475 16.744H15.9788C17.2588 16.744 18.2294 16.5627 18.8908 16.2C19.5521 15.816 19.8828 15.2187 19.8828 14.408C19.8828 13.8107 19.7014 13.3733 19.3388 13.096C18.9761 12.8187 18.4748 12.6373 17.8348 12.552C17.1948 12.4667 16.4801 12.424 15.6908 12.424H5.99475V16.744ZM5.99475 9.096H14.9868C16.2668 9.096 17.2374 8.936 17.8988 8.616C18.5601 8.27467 18.8908 7.688 18.8908 6.856C18.8908 6.04533 18.5601 5.46933 17.8988 5.128C17.2374 4.78667 16.3201 4.616 15.1468 4.616H5.99475V9.096ZM28.545 5.096H32.705V21H28.545V5.096ZM38.817 8.52C37.6223 8.52 36.5877 8.75467 35.713 9.224C34.8383 9.672 34.1343 10.2267 33.601 10.888C33.0677 11.5493 32.6943 12.1893 32.481 12.808L32.449 11.048C32.4703 10.792 32.5557 10.4187 32.705 9.928C32.8543 9.416 33.0783 8.872 33.377 8.296C33.6757 7.69867 34.0703 7.13333 34.561 6.6C35.0517 6.04533 35.649 5.59733 36.353 5.256C37.057 4.91467 37.8783 4.744 38.817 4.744V8.52ZM59.7888 21H55.6287V5.096H59.7888V21ZM55.8528 13.352L55.8848 14.44C55.8421 14.7387 55.7354 15.176 55.5648 15.752C55.3941 16.3067 55.1274 16.904 54.7648 17.544C54.4234 18.184 53.9754 18.8027 53.4208 19.4C52.8661 19.976 52.1834 20.456 51.3728 20.84C50.5621 21.2027 49.6021 21.384 48.4928 21.384C47.6181 21.384 46.7541 21.2773 45.9008 21.064C45.0688 20.8507 44.3114 20.4987 43.6288 20.008C42.9461 19.496 42.4021 18.8133 41.9968 17.96C41.5914 17.1067 41.3888 16.0293 41.3888 14.728V5.096H45.5488V14.024C45.5488 15.048 45.7088 15.8587 46.0288 16.456C46.3701 17.032 46.8608 17.4373 47.5008 17.672C48.1408 17.9067 48.8981 18.024 49.7728 18.024C50.9248 18.024 51.9168 17.7787 52.7488 17.288C53.5808 16.776 54.2528 16.1573 54.7648 15.432C55.2981 14.7067 55.6608 14.0133 55.8528 13.352ZM63.5763 5.096H67.7363V21H63.5763V5.096ZM75.1283 4.744C76.1096 4.744 77.0163 4.872 77.8483 5.128C78.6803 5.384 79.4056 5.77867 80.0243 6.312C80.6429 6.84533 81.1229 7.528 81.4643 8.36C81.8056 9.17067 81.9763 10.1413 81.9763 11.272V21H77.8162V12.008C77.8162 10.664 77.4856 9.68267 76.8243 9.064C76.1843 8.424 75.1283 8.104 73.6563 8.104C72.5469 8.104 71.5443 8.31733 70.6483 8.744C69.7523 9.17067 69.0269 9.71467 68.4723 10.376C67.9176 11.016 67.5976 11.688 67.5123 12.392L67.4803 10.76C67.5869 10.0133 67.8323 9.288 68.2163 8.584C68.6003 7.88 69.1123 7.24 69.7523 6.664C70.4136 6.06667 71.1923 5.59733 72.0883 5.256C72.9843 4.91467 73.9976 4.744 75.1283 4.744ZM95.1398 21.384C93.1344 21.384 91.3638 21.064 89.8278 20.424C88.3131 19.784 87.1291 18.856 86.2758 17.64C85.4224 16.4027 84.9958 14.888 84.9958 13.096C84.9958 11.304 85.4224 9.78933 86.2758 8.552C87.1291 7.29333 88.3131 6.344 89.8278 5.704C91.3638 5.064 93.1344 4.744 95.1398 4.744C97.1451 4.744 98.8944 5.064 100.388 5.704C101.902 6.344 103.086 7.29333 103.94 8.552C104.793 9.78933 105.22 11.304 105.22 13.096C105.22 14.888 104.793 16.4027 103.94 17.64C103.086 18.856 101.902 19.784 100.388 20.424C98.8944 21.064 97.1451 21.384 95.1398 21.384ZM95.1398 18.184C96.2491 18.184 97.2411 17.992 98.1158 17.608C99.0118 17.2027 99.7158 16.6267 100.228 15.88C100.74 15.112 100.996 14.184 100.996 13.096C100.996 12.008 100.74 11.08 100.228 10.312C99.7158 9.52267 99.0224 8.92533 98.1478 8.52C97.2731 8.11467 96.2704 7.912 95.1398 7.912C94.0304 7.912 93.0278 8.11467 92.1318 8.52C91.2358 8.92533 90.5211 9.512 89.9878 10.28C89.4758 11.048 89.2198 11.9867 89.2198 13.096C89.2198 14.184 89.4758 15.112 89.9878 15.88C90.4998 16.6267 91.2038 17.2027 92.0998 17.608C92.9958 17.992 94.0091 18.184 95.1398 18.184ZM127.655 18.792H124.807L138.375 0.359999H143.751V21H138.375V6.28L139.815 6.792L129.383 21H123.143L112.711 6.824L114.151 6.344V21H108.775V0.359999H114.151L127.655 18.792ZM166.476 21H162.316V5.096H166.476V21ZM162.54 13.352L162.572 14.44C162.53 14.7387 162.423 15.176 162.252 15.752C162.082 16.3067 161.815 16.904 161.452 17.544C161.111 18.184 160.663 18.8027 160.108 19.4C159.554 19.976 158.871 20.456 158.06 20.84C157.25 21.2027 156.29 21.384 155.18 21.384C154.306 21.384 153.442 21.2773 152.588 21.064C151.756 20.8507 150.999 20.4987 150.316 20.008C149.634 19.496 149.09 18.8133 148.684 17.96C148.279 17.1067 148.076 16.0293 148.076 14.728V5.096H152.236V14.024C152.236 15.048 152.396 15.8587 152.716 16.456C153.058 17.032 153.548 17.4373 154.188 17.672C154.828 17.9067 155.586 18.024 156.46 18.024C157.612 18.024 158.604 17.7787 159.436 17.288C160.268 16.776 160.94 16.1573 161.452 15.432C161.986 14.7067 162.348 14.0133 162.54 13.352ZM169.624 15.72H173.464C173.698 16.4453 174.178 17.0427 174.904 17.512C175.65 17.96 176.621 18.184 177.816 18.184C178.626 18.184 179.256 18.1093 179.704 17.96C180.152 17.8107 180.461 17.5973 180.632 17.32C180.802 17.0213 180.888 16.6907 180.888 16.328C180.888 15.88 180.749 15.5387 180.472 15.304C180.194 15.048 179.768 14.8453 179.192 14.696C178.616 14.5467 177.88 14.408 176.984 14.28C176.088 14.1307 175.224 13.9493 174.392 13.736C173.56 13.5227 172.824 13.2453 172.184 12.904C171.544 12.5413 171.032 12.0933 170.648 11.56C170.285 11.0053 170.104 10.3333 170.104 9.544C170.104 8.776 170.285 8.09333 170.648 7.496C171.032 6.89867 171.554 6.39733 172.216 5.992C172.898 5.58667 173.688 5.27733 174.584 5.064C175.501 4.85067 176.482 4.744 177.528 4.744C179.106 4.744 180.418 4.97867 181.464 5.448C182.509 5.896 183.288 6.536 183.8 7.368C184.333 8.17867 184.6 9.11733 184.6 10.184H180.92C180.749 9.39467 180.408 8.82933 179.896 8.488C179.384 8.12533 178.594 7.944 177.528 7.944C176.482 7.944 175.693 8.104 175.16 8.424C174.626 8.744 174.36 9.18133 174.36 9.736C174.36 10.184 174.52 10.536 174.84 10.792C175.181 11.0267 175.672 11.2187 176.312 11.368C176.973 11.5173 177.794 11.6773 178.776 11.848C179.608 12.0187 180.397 12.2107 181.144 12.424C181.912 12.6373 182.594 12.9147 183.192 13.256C183.789 13.576 184.258 14.0133 184.6 14.568C184.962 15.1013 185.144 15.784 185.144 16.616C185.144 17.64 184.845 18.504 184.248 19.208C183.672 19.912 182.84 20.456 181.752 20.84C180.664 21.2027 179.362 21.384 177.848 21.384C176.504 21.384 175.341 21.2453 174.36 20.968C173.4 20.6693 172.6 20.296 171.96 19.848C171.32 19.3787 170.818 18.888 170.456 18.376C170.114 17.8427 169.88 17.3413 169.752 16.872C169.624 16.4027 169.581 16.0187 169.624 15.72ZM187.686 15.72H191.526C191.761 16.4453 192.241 17.0427 192.966 17.512C193.713 17.96 194.684 18.184 195.878 18.184C196.689 18.184 197.318 18.1093 197.766 17.96C198.214 17.8107 198.524 17.5973 198.694 17.32C198.865 17.0213 198.95 16.6907 198.95 16.328C198.95 15.88 198.812 15.5387 198.534 15.304C198.257 15.048 197.83 14.8453 197.254 14.696C196.678 14.5467 195.942 14.408 195.046 14.28C194.15 14.1307 193.286 13.9493 192.454 13.736C191.622 13.5227 190.886 13.2453 190.246 12.904C189.606 12.5413 189.094 12.0933 188.71 11.56C188.348 11.0053 188.166 10.3333 188.166 9.544C188.166 8.776 188.348 8.09333 188.71 7.496C189.094 6.89867 189.617 6.39733 190.278 5.992C190.961 5.58667 191.75 5.27733 192.646 5.064C193.564 4.85067 194.545 4.744 195.59 4.744C197.169 4.744 198.481 4.97867 199.526 5.448C200.572 5.896 201.35 6.536 201.862 7.368C202.396 8.17867 202.662 9.11733 202.662 10.184H198.982C198.812 9.39467 198.47 8.82933 197.958 8.488C197.446 8.12533 196.657 7.944 195.59 7.944C194.545 7.944 193.756 8.104 193.222 8.424C192.689 8.744 192.422 9.18133 192.422 9.736C192.422 10.184 192.582 10.536 192.902 10.792C193.244 11.0267 193.734 11.2187 194.374 11.368C195.036 11.5173 195.857 11.6773 196.838 11.848C197.67 12.0187 198.46 12.2107 199.206 12.424C199.974 12.6373 200.657 12.9147 201.254 13.256C201.852 13.576 202.321 14.0133 202.662 14.568C203.025 15.1013 203.206 15.784 203.206 16.616C203.206 17.64 202.908 18.504 202.31 19.208C201.734 19.912 200.902 20.456 199.814 20.84C198.726 21.2027 197.425 21.384 195.91 21.384C194.566 21.384 193.404 21.2453 192.422 20.968C191.462 20.6693 190.662 20.296 190.022 19.848C189.382 19.3787 188.881 18.888 188.518 18.376C188.177 17.8427 187.942 17.3413 187.814 16.872C187.686 16.4027 187.644 16.0187 187.686 15.72ZM214.133 21.352C212.554 21.352 211.114 21.0107 209.813 20.328C208.533 19.624 207.509 18.6533 206.741 17.416C205.994 16.1573 205.621 14.7067 205.621 13.064C205.621 11.3787 206.005 9.91733 206.773 8.68C207.541 7.44267 208.575 6.48267 209.877 5.8C211.199 5.096 212.693 4.744 214.357 4.744C216.191 4.744 217.663 5.11733 218.773 5.864C219.903 6.58933 220.725 7.58133 221.237 8.84C221.749 10.0987 222.005 11.5067 222.005 13.064C222.005 14.0027 221.855 14.9627 221.557 15.944C221.258 16.904 220.799 17.8 220.181 18.632C219.562 19.4427 218.751 20.104 217.749 20.616C216.746 21.1067 215.541 21.352 214.133 21.352ZM215.477 18.152C216.735 18.152 217.823 17.9387 218.741 17.512C219.658 17.0853 220.362 16.488 220.853 15.72C221.343 14.952 221.589 14.0667 221.589 13.064C221.589 11.976 221.333 11.0587 220.821 10.312C220.33 9.544 219.626 8.968 218.709 8.584C217.813 8.17867 216.735 7.976 215.477 7.976C213.706 7.976 212.33 8.44533 211.349 9.384C210.367 10.3013 209.877 11.528 209.877 13.064C209.877 14.088 210.111 14.984 210.581 15.752C211.05 16.4987 211.701 17.0853 212.533 17.512C213.386 17.9387 214.367 18.152 215.477 18.152ZM221.589 5.096H225.749V21H221.877C221.877 21 221.845 20.7973 221.781 20.392C221.738 19.9653 221.695 19.432 221.653 18.792C221.61 18.152 221.589 17.5227 221.589 16.904V5.096ZM228.394 5.096H240.746V8.328H228.394V5.096ZM232.49 0.743999H236.65V21H232.49V0.743999ZM252.546 21.384C250.541 21.384 248.77 21.064 247.234 20.424C245.719 19.784 244.535 18.856 243.682 17.64C242.829 16.4027 242.402 14.888 242.402 13.096C242.402 11.304 242.829 9.78933 243.682 8.552C244.535 7.29333 245.719 6.344 247.234 5.704C248.77 5.064 250.541 4.744 252.546 4.744C254.551 4.744 256.301 5.064 257.794 5.704C259.309 6.344 260.493 7.29333 261.346 8.552C262.199 9.78933 262.626 11.304 262.626 13.096C262.626 14.888 262.199 16.4027 261.346 17.64C260.493 18.856 259.309 19.784 257.794 20.424C256.301 21.064 254.551 21.384 252.546 21.384ZM252.546 18.184C253.655 18.184 254.647 17.992 255.522 17.608C256.418 17.2027 257.122 16.6267 257.634 15.88C258.146 15.112 258.402 14.184 258.402 13.096C258.402 12.008 258.146 11.08 257.634 10.312C257.122 9.52267 256.429 8.92533 255.554 8.52C254.679 8.11467 253.677 7.912 252.546 7.912C251.437 7.912 250.434 8.11467 249.538 8.52C248.642 8.92533 247.927 9.512 247.394 10.28C246.882 11.048 246.626 11.9867 246.626 13.096C246.626 14.184 246.882 15.112 247.394 15.88C247.906 16.6267 248.61 17.2027 249.506 17.608C250.402 17.992 251.415 18.184 252.546 18.184Z" fill="#A9A9A9"/>
</svg>
